<svg xmlns="http://www.w3.org/2000/svg" xmlns:xlink="http://www.w3.org/1999/xlink" width="83" height="82" viewBox="0 0 83 82">
  <defs>
    <style>
      .cls-1 {
        clip-path: url(#clip-Template_final_2);
      }

      .cls-2, .cls-3, .cls-4, .cls-5 {
        fill: none;
        stroke-linecap: round;
        stroke-width: 3px;
      }

      .cls-2 {
        stroke: #fff;
      }

      .cls-3 {
        stroke: #8a4baf;
      }

      .cls-4 {
        stroke: #f2f2f2;
      }

      .cls-5 {
        stroke: #5a5a5a;
      }
    </style>
    <clipPath id="clip-Template_final_2">
      <rect width="83" height="82"/>
    </clipPath>
  </defs>
  <g id="Template_final_2" data-name="Template final 2" class="cls-1">
    <path id="Trazado_1" data-name="Trazado 1" class="cls-2" d="M0,0S1.083,4.323,2.162,4.323,4.316,0,4.316,0" transform="translate(1.747 1.633)"/>
    <path id="Trazado_1-2" data-name="Trazado 1" class="cls-2" d="M0,0S1.083,4.323,2.162,4.323,4.316,0,4.316,0" transform="translate(10.148 1.633)"/>
    <path id="Trazado_1-3" data-name="Trazado 1" class="cls-2" d="M0,0S1.083,4.323,2.162,4.323,4.316,0,4.316,0" transform="translate(18.55 1.633)"/>
    <path id="Trazado_1-4" data-name="Trazado 1" class="cls-2" d="M0,0S1.083,4.323,2.162,4.323,4.316,0,4.316,0" transform="translate(26.951 1.633)"/>
    <path id="Trazado_1-5" data-name="Trazado 1" class="cls-3" d="M0,0S1.083,4.323,2.162,4.323,4.316,0,4.316,0" transform="translate(35.352 1.633)"/>
    <path id="Trazado_1-6" data-name="Trazado 1" class="cls-3" d="M0,0S1.083,4.323,2.162,4.323,4.316,0,4.316,0" transform="translate(43.754 1.633)"/>
    <path id="Trazado_1-7" data-name="Trazado 1" class="cls-2" d="M0,0S1.083,4.323,2.162,4.323,4.316,0,4.316,0" transform="translate(52.155 1.633)"/>
    <path id="Trazado_1-8" data-name="Trazado 1" class="cls-2" d="M0,0S1.083,4.323,2.162,4.323,4.316,0,4.316,0" transform="translate(60.556 1.633)"/>
    <path id="Trazado_1-9" data-name="Trazado 1" class="cls-2" d="M0,0S1.083,4.323,2.162,4.323,4.316,0,4.316,0" transform="translate(68.958 1.633)"/>
    <path id="Trazado_1-10" data-name="Trazado 1" class="cls-2" d="M0,0S1.083,4.323,2.162,4.323,4.316,0,4.316,0" transform="translate(77.359 1.633)"/>
    <path id="Trazado_1-11" data-name="Trazado 1" class="cls-3" d="M0,0S1.083,4.323,2.162,4.323,4.316,0,4.316,0" transform="translate(1.747 9.87)"/>
    <path id="Trazado_1-12" data-name="Trazado 1" class="cls-3" d="M0,0S1.083,4.323,2.162,4.323,4.316,0,4.316,0" transform="translate(10.148 9.87)"/>
    <path id="Trazado_1-13" data-name="Trazado 1" class="cls-3" d="M0,0S1.083,4.323,2.162,4.323,4.316,0,4.316,0" transform="translate(18.55 9.87)"/>
    <path id="Trazado_1-14" data-name="Trazado 1" class="cls-3" d="M0,0S1.083,4.323,2.162,4.323,4.316,0,4.316,0" transform="translate(26.951 9.87)"/>
    <path id="Trazado_1-15" data-name="Trazado 1" class="cls-3" d="M0,0S1.083,4.323,2.162,4.323,4.316,0,4.316,0" transform="translate(35.352 9.87)"/>
    <path id="Trazado_1-16" data-name="Trazado 1" class="cls-3" d="M0,0S1.083,4.323,2.162,4.323,4.316,0,4.316,0" transform="translate(43.754 9.87)"/>
    <path id="Trazado_1-17" data-name="Trazado 1" class="cls-3" d="M0,0S1.083,4.323,2.162,4.323,4.316,0,4.316,0" transform="translate(52.155 9.87)"/>
    <path id="Trazado_1-18" data-name="Trazado 1" class="cls-3" d="M0,0S1.083,4.323,2.162,4.323,4.316,0,4.316,0" transform="translate(60.556 9.87)"/>
    <path id="Trazado_1-19" data-name="Trazado 1" class="cls-3" d="M0,0S1.083,4.323,2.162,4.323,4.316,0,4.316,0" transform="translate(68.958 9.87)"/>
    <path id="Trazado_1-20" data-name="Trazado 1" class="cls-3" d="M0,0S1.083,4.323,2.162,4.323,4.316,0,4.316,0" transform="translate(77.359 9.87)"/>
    <path id="Trazado_1-21" data-name="Trazado 1" class="cls-3" d="M0,0S1.083,4.323,2.162,4.323,4.316,0,4.316,0" transform="translate(1.747 18.107)"/>
    <path id="Trazado_1-22" data-name="Trazado 1" class="cls-2" d="M0,0S1.083,4.323,2.162,4.323,4.316,0,4.316,0" transform="translate(10.148 18.107)"/>
    <path id="Trazado_1-23" data-name="Trazado 1" class="cls-3" d="M0,0S1.083,4.323,2.162,4.323,4.316,0,4.316,0" transform="translate(18.55 18.107)"/>
    <path id="Trazado_1-24" data-name="Trazado 1" class="cls-2" d="M0,0S1.083,4.323,2.162,4.323,4.316,0,4.316,0" transform="translate(26.951 18.107)"/>
    <path id="Trazado_1-25" data-name="Trazado 1" class="cls-3" d="M0,0S1.083,4.323,2.162,4.323,4.316,0,4.316,0" transform="translate(35.352 18.107)"/>
    <path id="Trazado_1-26" data-name="Trazado 1" class="cls-2" d="M0,0S1.083,4.323,2.162,4.323,4.316,0,4.316,0" transform="translate(43.754 18.107)"/>
    <path id="Trazado_1-27" data-name="Trazado 1" class="cls-3" d="M0,0S1.083,4.323,2.162,4.323,4.316,0,4.316,0" transform="translate(52.155 18.107)"/>
    <path id="Trazado_1-28" data-name="Trazado 1" class="cls-2" d="M0,0S1.083,4.323,2.162,4.323,4.316,0,4.316,0" transform="translate(60.556 18.107)"/>
    <path id="Trazado_1-29" data-name="Trazado 1" class="cls-3" d="M0,0S1.083,4.323,2.162,4.323,4.316,0,4.316,0" transform="translate(68.958 18.107)"/>
    <path id="Trazado_1-30" data-name="Trazado 1" class="cls-2" d="M0,0S1.083,4.323,2.162,4.323,4.316,0,4.316,0" transform="translate(77.359 18.107)"/>
    <path id="Trazado_1-31" data-name="Trazado 1" class="cls-4" d="M0,0S1.083,4.323,2.162,4.323,4.316,0,4.316,0" transform="translate(1.747 26.343)"/>
    <path id="Trazado_1-32" data-name="Trazado 1" class="cls-3" d="M0,0S1.083,4.323,2.162,4.323,4.316,0,4.316,0" transform="translate(10.148 26.343)"/>
    <path id="Trazado_1-33" data-name="Trazado 1" class="cls-2" d="M0,0S1.083,4.323,2.162,4.323,4.316,0,4.316,0" transform="translate(18.55 26.343)"/>
    <path id="Trazado_1-34" data-name="Trazado 1" class="cls-3" d="M0,0S1.083,4.323,2.162,4.323,4.316,0,4.316,0" transform="translate(26.951 26.343)"/>
    <path id="Trazado_1-35" data-name="Trazado 1" class="cls-2" d="M0,0S1.083,4.323,2.162,4.323,4.316,0,4.316,0" transform="translate(35.352 26.343)"/>
    <path id="Trazado_1-36" data-name="Trazado 1" class="cls-3" d="M0,0S1.083,4.323,2.162,4.323,4.316,0,4.316,0" transform="translate(43.754 26.343)"/>
    <path id="Trazado_1-37" data-name="Trazado 1" class="cls-2" d="M0,0S1.083,4.323,2.162,4.323,4.316,0,4.316,0" transform="translate(52.155 26.343)"/>
    <path id="Trazado_1-38" data-name="Trazado 1" class="cls-3" d="M0,0S1.083,4.323,2.162,4.323,4.316,0,4.316,0" transform="translate(60.556 26.343)"/>
    <path id="Trazado_1-39" data-name="Trazado 1" class="cls-2" d="M0,0S1.083,4.323,2.162,4.323,4.316,0,4.316,0" transform="translate(68.958 26.343)"/>
    <path id="Trazado_1-40" data-name="Trazado 1" class="cls-3" d="M0,0S1.083,4.323,2.162,4.323,4.316,0,4.316,0" transform="translate(77.359 26.343)"/>
    <path id="Trazado_1-41" data-name="Trazado 1" class="cls-3" d="M0,0S1.083,4.323,2.162,4.323,4.316,0,4.316,0" transform="translate(1.747 34.58)"/>
    <path id="Trazado_1-42" data-name="Trazado 1" class="cls-2" d="M0,0S1.083,4.323,2.162,4.323,4.316,0,4.316,0" transform="translate(10.148 34.58)"/>
    <path id="Trazado_1-43" data-name="Trazado 1" class="cls-3" d="M0,0S1.083,4.323,2.162,4.323,4.316,0,4.316,0" transform="translate(18.55 34.58)"/>
    <path id="Trazado_1-44" data-name="Trazado 1" class="cls-2" d="M0,0S1.083,4.323,2.162,4.323,4.316,0,4.316,0" transform="translate(26.951 34.58)"/>
    <path id="Trazado_1-45" data-name="Trazado 1" class="cls-3" d="M0,0S1.083,4.323,2.162,4.323,4.316,0,4.316,0" transform="translate(35.352 34.58)"/>
    <path id="Trazado_1-46" data-name="Trazado 1" class="cls-2" d="M0,0S1.083,4.323,2.162,4.323,4.316,0,4.316,0" transform="translate(43.754 34.58)"/>
    <path id="Trazado_1-47" data-name="Trazado 1" class="cls-3" d="M0,0S1.083,4.323,2.162,4.323,4.316,0,4.316,0" transform="translate(52.155 34.58)"/>
    <path id="Trazado_1-48" data-name="Trazado 1" class="cls-2" d="M0,0S1.083,4.323,2.162,4.323,4.316,0,4.316,0" transform="translate(60.556 34.58)"/>
    <path id="Trazado_1-49" data-name="Trazado 1" class="cls-3" d="M0,0S1.083,4.323,2.162,4.323,4.316,0,4.316,0" transform="translate(68.958 34.58)"/>
    <path id="Trazado_1-50" data-name="Trazado 1" class="cls-4" d="M0,0S1.083,4.323,2.162,4.323,4.316,0,4.316,0" transform="translate(77.359 34.58)"/>
    <path id="Trazado_1-51" data-name="Trazado 1" class="cls-2" d="M0,0S1.083,4.323,2.162,4.323,4.316,0,4.316,0" transform="translate(1.747 42.817)"/>
    <path id="Trazado_1-52" data-name="Trazado 1" class="cls-3" d="M0,0S1.083,4.323,2.162,4.323,4.316,0,4.316,0" transform="translate(10.148 42.817)"/>
    <path id="Trazado_1-53" data-name="Trazado 1" class="cls-2" d="M0,0S1.083,4.323,2.162,4.323,4.316,0,4.316,0" transform="translate(18.55 42.817)"/>
    <path id="Trazado_1-54" data-name="Trazado 1" class="cls-3" d="M0,0S1.083,4.323,2.162,4.323,4.316,0,4.316,0" transform="translate(26.951 42.817)"/>
    <path id="Trazado_1-55" data-name="Trazado 1" class="cls-2" d="M0,0S1.083,4.323,2.162,4.323,4.316,0,4.316,0" transform="translate(35.352 42.817)"/>
    <path id="Trazado_1-56" data-name="Trazado 1" class="cls-3" d="M0,0S1.083,4.323,2.162,4.323,4.316,0,4.316,0" transform="translate(43.754 42.817)"/>
    <path id="Trazado_1-57" data-name="Trazado 1" class="cls-2" d="M0,0S1.083,4.323,2.162,4.323,4.316,0,4.316,0" transform="translate(52.155 42.817)"/>
    <path id="Trazado_1-58" data-name="Trazado 1" class="cls-3" d="M0,0S1.083,4.323,2.162,4.323,4.316,0,4.316,0" transform="translate(60.556 42.817)"/>
    <path id="Trazado_1-59" data-name="Trazado 1" class="cls-2" d="M0,0S1.083,4.323,2.162,4.323,4.316,0,4.316,0" transform="translate(68.958 42.817)"/>
    <path id="Trazado_1-60" data-name="Trazado 1" class="cls-3" d="M0,0S1.083,4.323,2.162,4.323,4.316,0,4.316,0" transform="translate(77.359 42.817)"/>
    <path id="Trazado_1-61" data-name="Trazado 1" class="cls-5" d="M0,0S1.083,4.323,2.162,4.323,4.316,0,4.316,0" transform="translate(1.747 51.053)"/>
    <path id="Trazado_1-62" data-name="Trazado 1" class="cls-5" d="M0,0S1.083,4.323,2.162,4.323,4.316,0,4.316,0" transform="translate(10.148 51.053)"/>
    <path id="Trazado_1-63" data-name="Trazado 1" class="cls-5" d="M0,0S1.083,4.323,2.162,4.323,4.316,0,4.316,0" transform="translate(18.55 51.053)"/>
    <path id="Trazado_1-64" data-name="Trazado 1" class="cls-5" d="M0,0S1.083,4.323,2.162,4.323,4.316,0,4.316,0" transform="translate(26.951 51.053)"/>
    <path id="Trazado_1-65" data-name="Trazado 1" class="cls-5" d="M0,0S1.083,4.323,2.162,4.323,4.316,0,4.316,0" transform="translate(35.352 51.053)"/>
    <path id="Trazado_1-66" data-name="Trazado 1" class="cls-5" d="M0,0S1.083,4.323,2.162,4.323,4.316,0,4.316,0" transform="translate(43.754 51.053)"/>
    <path id="Trazado_1-67" data-name="Trazado 1" class="cls-5" d="M0,0S1.083,4.323,2.162,4.323,4.316,0,4.316,0" transform="translate(52.155 51.053)"/>
    <path id="Trazado_1-68" data-name="Trazado 1" class="cls-5" d="M0,0S1.083,4.323,2.162,4.323,4.316,0,4.316,0" transform="translate(60.556 51.053)"/>
    <path id="Trazado_1-69" data-name="Trazado 1" class="cls-5" d="M0,0S1.083,4.323,2.162,4.323,4.316,0,4.316,0" transform="translate(68.958 51.053)"/>
    <path id="Trazado_1-70" data-name="Trazado 1" class="cls-5" d="M0,0S1.083,4.323,2.162,4.323,4.316,0,4.316,0" transform="translate(77.359 51.053)"/>
    <path id="Trazado_1-71" data-name="Trazado 1" class="cls-5" d="M0,0S1.083,4.323,2.162,4.323,4.316,0,4.316,0" transform="translate(1.747 59.29)"/>
    <path id="Trazado_1-72" data-name="Trazado 1" class="cls-5" d="M0,0S1.083,4.323,2.162,4.323,4.316,0,4.316,0" transform="translate(10.148 59.29)"/>
    <path id="Trazado_1-73" data-name="Trazado 1" class="cls-5" d="M0,0S1.083,4.323,2.162,4.323,4.316,0,4.316,0" transform="translate(18.55 59.29)"/>
    <path id="Trazado_1-74" data-name="Trazado 1" class="cls-5" d="M0,0S1.083,4.323,2.162,4.323,4.316,0,4.316,0" transform="translate(26.951 59.29)"/>
    <path id="Trazado_1-75" data-name="Trazado 1" class="cls-5" d="M0,0S1.083,4.323,2.162,4.323,4.316,0,4.316,0" transform="translate(35.352 59.29)"/>
    <path id="Trazado_1-76" data-name="Trazado 1" class="cls-5" d="M0,0S1.083,4.323,2.162,4.323,4.316,0,4.316,0" transform="translate(43.754 59.29)"/>
    <path id="Trazado_1-77" data-name="Trazado 1" class="cls-5" d="M0,0S1.083,4.323,2.162,4.323,4.316,0,4.316,0" transform="translate(52.155 59.29)"/>
    <path id="Trazado_1-78" data-name="Trazado 1" class="cls-5" d="M0,0S1.083,4.323,2.162,4.323,4.316,0,4.316,0" transform="translate(60.556 59.29)"/>
    <path id="Trazado_1-79" data-name="Trazado 1" class="cls-5" d="M0,0S1.083,4.323,2.162,4.323,4.316,0,4.316,0" transform="translate(68.958 59.29)"/>
    <path id="Trazado_1-80" data-name="Trazado 1" class="cls-5" d="M0,0S1.083,4.323,2.162,4.323,4.316,0,4.316,0" transform="translate(77.359 59.29)"/>
    <path id="Trazado_1-81" data-name="Trazado 1" class="cls-3" d="M0,0S1.083,4.323,2.162,4.323,4.316,0,4.316,0" transform="translate(1.747 67.527)"/>
    <path id="Trazado_1-82" data-name="Trazado 1" class="cls-3" d="M0,0S1.083,4.323,2.162,4.323,4.316,0,4.316,0" transform="translate(10.148 67.527)"/>
    <path id="Trazado_1-83" data-name="Trazado 1" class="cls-3" d="M0,0S1.083,4.323,2.162,4.323,4.316,0,4.316,0" transform="translate(18.55 67.527)"/>
    <path id="Trazado_1-84" data-name="Trazado 1" class="cls-3" d="M0,0S1.083,4.323,2.162,4.323,4.316,0,4.316,0" transform="translate(26.951 67.527)"/>
    <path id="Trazado_1-85" data-name="Trazado 1" class="cls-3" d="M0,0S1.083,4.323,2.162,4.323,4.316,0,4.316,0" transform="translate(35.352 67.527)"/>
    <path id="Trazado_1-86" data-name="Trazado 1" class="cls-3" d="M0,0S1.083,4.323,2.162,4.323,4.316,0,4.316,0" transform="translate(43.754 67.527)"/>
    <path id="Trazado_1-87" data-name="Trazado 1" class="cls-3" d="M0,0S1.083,4.323,2.162,4.323,4.316,0,4.316,0" transform="translate(52.155 67.527)"/>
    <path id="Trazado_1-88" data-name="Trazado 1" class="cls-3" d="M0,0S1.083,4.323,2.162,4.323,4.316,0,4.316,0" transform="translate(60.556 67.527)"/>
    <path id="Trazado_1-89" data-name="Trazado 1" class="cls-3" d="M0,0S1.083,4.323,2.162,4.323,4.316,0,4.316,0" transform="translate(68.958 67.527)"/>
    <path id="Trazado_1-90" data-name="Trazado 1" class="cls-3" d="M0,0S1.083,4.323,2.162,4.323,4.316,0,4.316,0" transform="translate(77.359 67.527)"/>
    <path id="Trazado_1-91" data-name="Trazado 1" class="cls-3" d="M0,0S1.083,4.323,2.162,4.323,4.316,0,4.316,0" transform="translate(1.747 75.763)"/>
    <path id="Trazado_1-92" data-name="Trazado 1" class="cls-3" d="M0,0S1.083,4.323,2.162,4.323,4.316,0,4.316,0" transform="translate(10.148 75.763)"/>
    <path id="Trazado_1-93" data-name="Trazado 1" class="cls-3" d="M0,0S1.083,4.323,2.162,4.323,4.316,0,4.316,0" transform="translate(18.55 75.763)"/>
    <path id="Trazado_1-94" data-name="Trazado 1" class="cls-3" d="M0,0S1.083,4.323,2.162,4.323,4.316,0,4.316,0" transform="translate(26.951 75.763)"/>
    <path id="Trazado_1-95" data-name="Trazado 1" class="cls-3" d="M0,0S1.083,4.323,2.162,4.323,4.316,0,4.316,0" transform="translate(35.352 75.763)"/>
    <path id="Trazado_1-96" data-name="Trazado 1" class="cls-3" d="M0,0S1.083,4.323,2.162,4.323,4.316,0,4.316,0" transform="translate(43.754 75.763)"/>
    <path id="Trazado_1-97" data-name="Trazado 1" class="cls-3" d="M0,0S1.083,4.323,2.162,4.323,4.316,0,4.316,0" transform="translate(52.155 75.763)"/>
    <path id="Trazado_1-98" data-name="Trazado 1" class="cls-3" d="M0,0S1.083,4.323,2.162,4.323,4.316,0,4.316,0" transform="translate(60.556 75.763)"/>
    <path id="Trazado_1-99" data-name="Trazado 1" class="cls-3" d="M0,0S1.083,4.323,2.162,4.323,4.316,0,4.316,0" transform="translate(68.958 75.763)"/>
    <path id="Trazado_1-100" data-name="Trazado 1" class="cls-3" d="M0,0S1.083,4.323,2.162,4.323,4.316,0,4.316,0" transform="translate(77.359 75.763)"/>
  </g>
</svg>
