<svg xmlns="http://www.w3.org/2000/svg" xmlns:xlink="http://www.w3.org/1999/xlink" width="166" height="82" viewBox="0 0 166 82">
  <defs>
    <clipPath id="clip-Pattern4">
      <rect width="166" height="82"/>
    </clipPath>
  </defs>
  <g id="Pattern4" clip-path="url(#clip-Pattern4)">
    <path id="Trazado_1" data-name="Trazado 1" d="M0,0S1.083,4.323,2.162,4.323,4.316,0,4.316,0" transform="translate(1.747 1.633)" fill="none" stroke="#8a4baf" stroke-linecap="round" stroke-width="3"/>
    <path id="Trazado_1-2" data-name="Trazado 1" d="M0,0S1.083,4.323,2.162,4.323,4.316,0,4.316,0" transform="translate(10.148 1.633)" fill="none" stroke="#8a4baf" stroke-linecap="round" stroke-width="3"/>
    <path id="Trazado_1-3" data-name="Trazado 1" d="M0,0S1.083,4.323,2.162,4.323,4.316,0,4.316,0" transform="translate(18.55 1.633)" fill="none" stroke="#8a4baf" stroke-linecap="round" stroke-width="3"/>
    <path id="Trazado_1-4" data-name="Trazado 1" d="M0,0S1.083,4.323,2.162,4.323,4.316,0,4.316,0" transform="translate(26.951 1.633)" fill="none" stroke="#8a4baf" stroke-linecap="round" stroke-width="3"/>
    <path id="Trazado_1-5" data-name="Trazado 1" d="M0,0S1.083,4.323,2.162,4.323,4.316,0,4.316,0" transform="translate(35.352 1.633)" fill="none" stroke="#8a4baf" stroke-linecap="round" stroke-width="3"/>
    <path id="Trazado_1-6" data-name="Trazado 1" d="M0,0S1.083,4.323,2.162,4.323,4.316,0,4.316,0" transform="translate(43.754 1.633)" fill="none" stroke="#8a4baf" stroke-linecap="round" stroke-width="3"/>
    <path id="Trazado_1-7" data-name="Trazado 1" d="M0,0S1.083,4.323,2.162,4.323,4.316,0,4.316,0" transform="translate(52.155 1.633)" fill="none" stroke="#8a4baf" stroke-linecap="round" stroke-width="3"/>
    <path id="Trazado_1-8" data-name="Trazado 1" d="M0,0S1.083,4.323,2.162,4.323,4.316,0,4.316,0" transform="translate(60.556 1.633)" fill="none" stroke="#8a4baf" stroke-linecap="round" stroke-width="3"/>
    <path id="Trazado_1-9" data-name="Trazado 1" d="M0,0S1.083,4.323,2.162,4.323,4.316,0,4.316,0" transform="translate(68.958 1.633)" fill="none" stroke="#8a4baf" stroke-linecap="round" stroke-width="3"/>
    <path id="Trazado_1-10" data-name="Trazado 1" d="M0,0S1.083,4.323,2.162,4.323,4.316,0,4.316,0" transform="translate(77.359 1.633)" fill="none" stroke="#8a4baf" stroke-linecap="round" stroke-width="3"/>
    <path id="Trazado_1-11" data-name="Trazado 1" d="M0,0S1.083,4.323,2.162,4.323,4.316,0,4.316,0" transform="translate(1.747 9.87)" fill="none" stroke="#8a4baf" stroke-linecap="round" stroke-width="3"/>
    <path id="Trazado_1-12" data-name="Trazado 1" d="M0,0S1.083,4.323,2.162,4.323,4.316,0,4.316,0" transform="translate(10.148 9.87)" fill="none" stroke="#8a4baf" stroke-linecap="round" stroke-width="3"/>
    <path id="Trazado_1-13" data-name="Trazado 1" d="M0,0S1.083,4.323,2.162,4.323,4.316,0,4.316,0" transform="translate(18.55 9.87)" fill="none" stroke="#8a4baf" stroke-linecap="round" stroke-width="3"/>
    <path id="Trazado_1-14" data-name="Trazado 1" d="M0,0S1.083,4.323,2.162,4.323,4.316,0,4.316,0" transform="translate(26.951 9.87)" fill="none" stroke="#fff" stroke-linecap="round" stroke-width="3"/>
    <path id="Trazado_1-15" data-name="Trazado 1" d="M0,0S1.083,4.323,2.162,4.323,4.316,0,4.316,0" transform="translate(35.352 9.87)" fill="none" stroke="#fff" stroke-linecap="round" stroke-width="3"/>
    <path id="Trazado_1-16" data-name="Trazado 1" d="M0,0S1.083,4.323,2.162,4.323,4.316,0,4.316,0" transform="translate(43.754 9.87)" fill="none" stroke="#fff" stroke-linecap="round" stroke-width="3"/>
    <path id="Trazado_1-17" data-name="Trazado 1" d="M0,0S1.083,4.323,2.162,4.323,4.316,0,4.316,0" transform="translate(52.155 9.87)" fill="none" stroke="#fff" stroke-linecap="round" stroke-width="3"/>
    <path id="Trazado_1-18" data-name="Trazado 1" d="M0,0S1.083,4.323,2.162,4.323,4.316,0,4.316,0" transform="translate(60.556 9.87)" fill="none" stroke="#8a4baf" stroke-linecap="round" stroke-width="3"/>
    <path id="Trazado_1-19" data-name="Trazado 1" d="M0,0S1.083,4.323,2.162,4.323,4.316,0,4.316,0" transform="translate(68.958 9.87)" fill="none" stroke="#8a4baf" stroke-linecap="round" stroke-width="3"/>
    <path id="Trazado_1-20" data-name="Trazado 1" d="M0,0S1.083,4.323,2.162,4.323,4.316,0,4.316,0" transform="translate(77.359 9.87)" fill="none" stroke="#8a4baf" stroke-linecap="round" stroke-width="3"/>
    <path id="Trazado_1-21" data-name="Trazado 1" d="M0,0S1.083,4.323,2.162,4.323,4.316,0,4.316,0" transform="translate(1.747 18.107)" fill="none" stroke="#8a4baf" stroke-linecap="round" stroke-width="3"/>
    <path id="Trazado_1-22" data-name="Trazado 1" d="M0,0S1.083,4.323,2.162,4.323,4.316,0,4.316,0" transform="translate(10.148 18.107)" fill="none" stroke="#8a4baf" stroke-linecap="round" stroke-width="3"/>
    <path id="Trazado_1-23" data-name="Trazado 1" d="M0,0S1.083,4.323,2.162,4.323,4.316,0,4.316,0" transform="translate(18.55 18.107)" fill="none" stroke="#fff" stroke-linecap="round" stroke-width="3"/>
    <path id="Trazado_1-24" data-name="Trazado 1" d="M0,0S1.083,4.323,2.162,4.323,4.316,0,4.316,0" transform="translate(26.951 18.107)" fill="none" stroke="#8a4baf" stroke-linecap="round" stroke-width="3"/>
    <path id="Trazado_1-25" data-name="Trazado 1" d="M0,0S1.083,4.323,2.162,4.323,4.316,0,4.316,0" transform="translate(35.352 18.107)" fill="none" stroke="#8a4baf" stroke-linecap="round" stroke-width="3"/>
    <path id="Trazado_1-26" data-name="Trazado 1" d="M0,0S1.083,4.323,2.162,4.323,4.316,0,4.316,0" transform="translate(43.754 18.107)" fill="none" stroke="#8a4baf" stroke-linecap="round" stroke-width="3"/>
    <path id="Trazado_1-27" data-name="Trazado 1" d="M0,0S1.083,4.323,2.162,4.323,4.316,0,4.316,0" transform="translate(52.155 18.107)" fill="none" stroke="#8a4baf" stroke-linecap="round" stroke-width="3"/>
    <path id="Trazado_1-28" data-name="Trazado 1" d="M0,0S1.083,4.323,2.162,4.323,4.316,0,4.316,0" transform="translate(60.556 18.107)" fill="none" stroke="#fff" stroke-linecap="round" stroke-width="3"/>
    <path id="Trazado_1-29" data-name="Trazado 1" d="M0,0S1.083,4.323,2.162,4.323,4.316,0,4.316,0" transform="translate(68.958 18.107)" fill="none" stroke="#8a4baf" stroke-linecap="round" stroke-width="3"/>
    <path id="Trazado_1-30" data-name="Trazado 1" d="M0,0S1.083,4.323,2.162,4.323,4.316,0,4.316,0" transform="translate(77.359 18.107)" fill="none" stroke="#8a4baf" stroke-linecap="round" stroke-width="3"/>
    <path id="Trazado_1-31" data-name="Trazado 1" d="M0,0S1.083,4.323,2.162,4.323,4.316,0,4.316,0" transform="translate(1.747 26.343)" fill="none" stroke="#8a4baf" stroke-linecap="round" stroke-width="3"/>
    <path id="Trazado_1-32" data-name="Trazado 1" d="M0,0S1.083,4.323,2.162,4.323,4.316,0,4.316,0" transform="translate(10.148 26.343)" fill="none" stroke="#fff" stroke-linecap="round" stroke-width="3"/>
    <path id="Trazado_1-33" data-name="Trazado 1" d="M0,0S1.083,4.323,2.162,4.323,4.316,0,4.316,0" transform="translate(18.55 26.343)" fill="none" stroke="#8a4baf" stroke-linecap="round" stroke-width="3"/>
    <path id="Trazado_1-34" data-name="Trazado 1" d="M0,0S1.083,4.323,2.162,4.323,4.316,0,4.316,0" transform="translate(26.951 26.343)" fill="none" stroke="#8a4baf" stroke-linecap="round" stroke-width="3"/>
    <path id="Trazado_1-35" data-name="Trazado 1" d="M0,0S1.083,4.323,2.162,4.323,4.316,0,4.316,0" transform="translate(35.352 26.343)" fill="none" stroke="#8a4baf" stroke-linecap="round" stroke-width="3"/>
    <path id="Trazado_1-36" data-name="Trazado 1" d="M0,0S1.083,4.323,2.162,4.323,4.316,0,4.316,0" transform="translate(43.754 26.343)" fill="none" stroke="#8a4baf" stroke-linecap="round" stroke-width="3"/>
    <path id="Trazado_1-37" data-name="Trazado 1" d="M0,0S1.083,4.323,2.162,4.323,4.316,0,4.316,0" transform="translate(52.155 26.343)" fill="none" stroke="#8a4baf" stroke-linecap="round" stroke-width="3"/>
    <path id="Trazado_1-38" data-name="Trazado 1" d="M0,0S1.083,4.323,2.162,4.323,4.316,0,4.316,0" transform="translate(60.556 26.343)" fill="none" stroke="#8a4baf" stroke-linecap="round" stroke-width="3"/>
    <path id="Trazado_1-39" data-name="Trazado 1" d="M0,0S1.083,4.323,2.162,4.323,4.316,0,4.316,0" transform="translate(68.958 26.343)" fill="none" stroke="#fff" stroke-linecap="round" stroke-width="3"/>
    <path id="Trazado_1-40" data-name="Trazado 1" d="M0,0S1.083,4.323,2.162,4.323,4.316,0,4.316,0" transform="translate(77.359 26.343)" fill="none" stroke="#8a4baf" stroke-linecap="round" stroke-width="3"/>
    <path id="Trazado_1-41" data-name="Trazado 1" d="M0,0S1.083,4.323,2.162,4.323,4.316,0,4.316,0" transform="translate(1.747 34.58)" fill="none" stroke="#8a4baf" stroke-linecap="round" stroke-width="3"/>
    <path id="Trazado_1-42" data-name="Trazado 1" d="M0,0S1.083,4.323,2.162,4.323,4.316,0,4.316,0" transform="translate(10.148 34.58)" fill="none" stroke="#fff" stroke-linecap="round" stroke-width="3"/>
    <path id="Trazado_1-43" data-name="Trazado 1" d="M0,0S1.083,4.323,2.162,4.323,4.316,0,4.316,0" transform="translate(18.55 34.58)" fill="none" stroke="#8a4baf" stroke-linecap="round" stroke-width="3"/>
    <path id="Trazado_1-44" data-name="Trazado 1" d="M0,0S1.083,4.323,2.162,4.323,4.316,0,4.316,0" transform="translate(26.951 34.58)" fill="none" stroke="#8a4baf" stroke-linecap="round" stroke-width="3"/>
    <path id="Trazado_1-45" data-name="Trazado 1" d="M0,0S1.083,4.323,2.162,4.323,4.316,0,4.316,0" transform="translate(35.352 34.58)" fill="none" stroke="#8a4baf" stroke-linecap="round" stroke-width="3"/>
    <path id="Trazado_1-46" data-name="Trazado 1" d="M0,0S1.083,4.323,2.162,4.323,4.316,0,4.316,0" transform="translate(43.754 34.58)" fill="none" stroke="#8a4baf" stroke-linecap="round" stroke-width="3"/>
    <path id="Trazado_1-47" data-name="Trazado 1" d="M0,0S1.083,4.323,2.162,4.323,4.316,0,4.316,0" transform="translate(52.155 34.58)" fill="none" stroke="#8a4baf" stroke-linecap="round" stroke-width="3"/>
    <path id="Trazado_1-48" data-name="Trazado 1" d="M0,0S1.083,4.323,2.162,4.323,4.316,0,4.316,0" transform="translate(60.556 34.58)" fill="none" stroke="#8a4baf" stroke-linecap="round" stroke-width="3"/>
    <path id="Trazado_1-49" data-name="Trazado 1" d="M0,0S1.083,4.323,2.162,4.323,4.316,0,4.316,0" transform="translate(68.958 34.58)" fill="none" stroke="#8a4baf" stroke-linecap="round" stroke-width="3"/>
    <path id="Trazado_1-50" data-name="Trazado 1" d="M0,0S1.083,4.323,2.162,4.323,4.316,0,4.316,0" transform="translate(77.359 34.58)" fill="none" stroke="#8a4baf" stroke-linecap="round" stroke-width="3"/>
    <path id="Trazado_1-51" data-name="Trazado 1" d="M0,0S1.083,4.323,2.162,4.323,4.316,0,4.316,0" transform="translate(1.747 42.817)" fill="none" stroke="#8a4baf" stroke-linecap="round" stroke-width="3"/>
    <path id="Trazado_1-52" data-name="Trazado 1" d="M0,0S1.083,4.323,2.162,4.323,4.316,0,4.316,0" transform="translate(10.148 42.817)" fill="none" stroke="#fff" stroke-linecap="round" stroke-width="3"/>
    <path id="Trazado_1-53" data-name="Trazado 1" d="M0,0S1.083,4.323,2.162,4.323,4.316,0,4.316,0" transform="translate(18.55 42.817)" fill="none" stroke="#8a4baf" stroke-linecap="round" stroke-width="3"/>
    <path id="Trazado_1-54" data-name="Trazado 1" d="M0,0S1.083,4.323,2.162,4.323,4.316,0,4.316,0" transform="translate(26.951 42.817)" fill="none" stroke="#8a4baf" stroke-linecap="round" stroke-width="3"/>
    <path id="Trazado_1-55" data-name="Trazado 1" d="M0,0S1.083,4.323,2.162,4.323,4.316,0,4.316,0" transform="translate(35.352 42.817)" fill="none" stroke="#8a4baf" stroke-linecap="round" stroke-width="3"/>
    <path id="Trazado_1-56" data-name="Trazado 1" d="M0,0S1.083,4.323,2.162,4.323,4.316,0,4.316,0" transform="translate(43.754 42.817)" fill="none" stroke="#fff" stroke-linecap="round" stroke-width="3"/>
    <path id="Trazado_1-57" data-name="Trazado 1" d="M0,0S1.083,4.323,2.162,4.323,4.316,0,4.316,0" transform="translate(52.155 42.817)" fill="none" stroke="#fff" stroke-linecap="round" stroke-width="3"/>
    <path id="Trazado_1-58" data-name="Trazado 1" d="M0,0S1.083,4.323,2.162,4.323,4.316,0,4.316,0" transform="translate(60.556 42.817)" fill="none" stroke="#fff" stroke-linecap="round" stroke-width="3"/>
    <path id="Trazado_1-59" data-name="Trazado 1" d="M0,0S1.083,4.323,2.162,4.323,4.316,0,4.316,0" transform="translate(68.958 42.817)" fill="none" stroke="#fff" stroke-linecap="round" stroke-width="3"/>
    <path id="Trazado_1-60" data-name="Trazado 1" d="M0,0S1.083,4.323,2.162,4.323,4.316,0,4.316,0" transform="translate(77.359 42.817)" fill="none" stroke="#8a4baf" stroke-linecap="round" stroke-width="3"/>
    <path id="Trazado_1-61" data-name="Trazado 1" d="M0,0S1.083,4.323,2.162,4.323,4.316,0,4.316,0" transform="translate(1.747 51.053)" fill="none" stroke="#8a4baf" stroke-linecap="round" stroke-width="3"/>
    <path id="Trazado_1-62" data-name="Trazado 1" d="M0,0S1.083,4.323,2.162,4.323,4.316,0,4.316,0" transform="translate(10.148 51.053)" fill="none" stroke="#8a4baf" stroke-linecap="round" stroke-width="3"/>
    <path id="Trazado_1-63" data-name="Trazado 1" d="M0,0S1.083,4.323,2.162,4.323,4.316,0,4.316,0" transform="translate(18.55 51.053)" fill="none" stroke="#fff" stroke-linecap="round" stroke-width="3"/>
    <path id="Trazado_1-64" data-name="Trazado 1" d="M0,0S1.083,4.323,2.162,4.323,4.316,0,4.316,0" transform="translate(26.951 51.053)" fill="none" stroke="#8a4baf" stroke-linecap="round" stroke-width="3"/>
    <path id="Trazado_1-65" data-name="Trazado 1" d="M0,0S1.083,4.323,2.162,4.323,4.316,0,4.316,0" transform="translate(35.352 51.053)" fill="none" stroke="#8a4baf" stroke-linecap="round" stroke-width="3"/>
    <path id="Trazado_1-66" data-name="Trazado 1" d="M0,0S1.083,4.323,2.162,4.323,4.316,0,4.316,0" transform="translate(43.754 51.053)" fill="none" stroke="#8a4baf" stroke-linecap="round" stroke-width="3"/>
    <path id="Trazado_1-67" data-name="Trazado 1" d="M0,0S1.083,4.323,2.162,4.323,4.316,0,4.316,0" transform="translate(52.155 51.053)" fill="none" stroke="#8a4baf" stroke-linecap="round" stroke-width="3"/>
    <path id="Trazado_1-68" data-name="Trazado 1" d="M0,0S1.083,4.323,2.162,4.323,4.316,0,4.316,0" transform="translate(60.556 51.053)" fill="none" stroke="#8a4baf" stroke-linecap="round" stroke-width="3"/>
    <path id="Trazado_1-69" data-name="Trazado 1" d="M0,0S1.083,4.323,2.162,4.323,4.316,0,4.316,0" transform="translate(68.958 51.053)" fill="none" stroke="#fff" stroke-linecap="round" stroke-width="3"/>
    <path id="Trazado_1-70" data-name="Trazado 1" d="M0,0S1.083,4.323,2.162,4.323,4.316,0,4.316,0" transform="translate(77.359 51.053)" fill="none" stroke="#8a4baf" stroke-linecap="round" stroke-width="3"/>
    <path id="Trazado_1-71" data-name="Trazado 1" d="M0,0S1.083,4.323,2.162,4.323,4.316,0,4.316,0" transform="translate(1.747 59.29)" fill="none" stroke="#8a4baf" stroke-linecap="round" stroke-width="3"/>
    <path id="Trazado_1-72" data-name="Trazado 1" d="M0,0S1.083,4.323,2.162,4.323,4.316,0,4.316,0" transform="translate(10.148 59.29)" fill="none" stroke="#fff" stroke-linecap="round" stroke-width="3"/>
    <path id="Trazado_1-73" data-name="Trazado 1" d="M0,0S1.083,4.323,2.162,4.323,4.316,0,4.316,0" transform="translate(18.55 59.29)" fill="none" stroke="#8a4baf" stroke-linecap="round" stroke-width="3"/>
    <path id="Trazado_1-74" data-name="Trazado 1" d="M0,0S1.083,4.323,2.162,4.323,4.316,0,4.316,0" transform="translate(26.951 59.29)" fill="none" stroke="#fff" stroke-linecap="round" stroke-width="3"/>
    <path id="Trazado_1-75" data-name="Trazado 1" d="M0,0S1.083,4.323,2.162,4.323,4.316,0,4.316,0" transform="translate(35.352 59.29)" fill="none" stroke="#8a4baf" stroke-linecap="round" stroke-width="3"/>
    <path id="Trazado_1-76" data-name="Trazado 1" d="M0,0S1.083,4.323,2.162,4.323,4.316,0,4.316,0" transform="translate(43.754 59.29)" fill="none" stroke="#8a4baf" stroke-linecap="round" stroke-width="3"/>
    <path id="Trazado_1-77" data-name="Trazado 1" d="M0,0S1.083,4.323,2.162,4.323,4.316,0,4.316,0" transform="translate(52.155 59.29)" fill="none" stroke="#fff" stroke-linecap="round" stroke-width="3"/>
    <path id="Trazado_1-78" data-name="Trazado 1" d="M0,0S1.083,4.323,2.162,4.323,4.316,0,4.316,0" transform="translate(60.556 59.29)" fill="none" stroke="#fff" stroke-linecap="round" stroke-width="3"/>
    <path id="Trazado_1-79" data-name="Trazado 1" d="M0,0S1.083,4.323,2.162,4.323,4.316,0,4.316,0" transform="translate(68.958 59.29)" fill="none" stroke="#8a4baf" stroke-linecap="round" stroke-width="3"/>
    <path id="Trazado_1-80" data-name="Trazado 1" d="M0,0S1.083,4.323,2.162,4.323,4.316,0,4.316,0" transform="translate(77.359 59.29)" fill="none" stroke="#8a4baf" stroke-linecap="round" stroke-width="3"/>
    <path id="Trazado_1-81" data-name="Trazado 1" d="M0,0S1.083,4.323,2.162,4.323,4.316,0,4.316,0" transform="translate(1.747 67.526)" fill="none" stroke="#8a4baf" stroke-linecap="round" stroke-width="3"/>
    <path id="Trazado_1-82" data-name="Trazado 1" d="M0,0S1.083,4.323,2.162,4.323,4.316,0,4.316,0" transform="translate(10.148 67.526)" fill="none" stroke="#fff" stroke-linecap="round" stroke-width="3"/>
    <path id="Trazado_1-83" data-name="Trazado 1" d="M0,0S1.083,4.323,2.162,4.323,4.316,0,4.316,0" transform="translate(18.55 67.526)" fill="none" stroke="#fff" stroke-linecap="round" stroke-width="3"/>
    <path id="Trazado_1-84" data-name="Trazado 1" d="M0,0S1.083,4.323,2.162,4.323,4.316,0,4.316,0" transform="translate(26.951 67.526)" fill="none" stroke="#8a4baf" stroke-linecap="round" stroke-width="3"/>
    <path id="Trazado_1-85" data-name="Trazado 1" d="M0,0S1.083,4.323,2.162,4.323,4.316,0,4.316,0" transform="translate(35.352 67.526)" fill="none" stroke="#fff" stroke-linecap="round" stroke-width="3"/>
    <path id="Trazado_1-86" data-name="Trazado 1" d="M0,0S1.083,4.323,2.162,4.323,4.316,0,4.316,0" transform="translate(43.754 67.526)" fill="none" stroke="#fff" stroke-linecap="round" stroke-width="3"/>
    <path id="Trazado_1-87" data-name="Trazado 1" d="M0,0S1.083,4.323,2.162,4.323,4.316,0,4.316,0" transform="translate(52.155 67.526)" fill="none" stroke="#8a4baf" stroke-linecap="round" stroke-width="3"/>
    <path id="Trazado_1-88" data-name="Trazado 1" d="M0,0S1.083,4.323,2.162,4.323,4.316,0,4.316,0" transform="translate(60.556 67.526)" fill="none" stroke="#8a4baf" stroke-linecap="round" stroke-width="3"/>
    <path id="Trazado_1-89" data-name="Trazado 1" d="M0,0S1.083,4.323,2.162,4.323,4.316,0,4.316,0" transform="translate(68.958 67.526)" fill="none" stroke="#8a4baf" stroke-linecap="round" stroke-width="3"/>
    <path id="Trazado_1-90" data-name="Trazado 1" d="M0,0S1.083,4.323,2.162,4.323,4.316,0,4.316,0" transform="translate(77.359 67.526)" fill="none" stroke="#8a4baf" stroke-linecap="round" stroke-width="3"/>
    <path id="Trazado_1-91" data-name="Trazado 1" d="M0,0S1.083,4.323,2.162,4.323,4.316,0,4.316,0" transform="translate(1.747 75.763)" fill="none" stroke="#8a4baf" stroke-linecap="round" stroke-width="3"/>
    <path id="Trazado_1-92" data-name="Trazado 1" d="M0,0S1.083,4.323,2.162,4.323,4.316,0,4.316,0" transform="translate(10.148 75.763)" fill="none" stroke="#8a4baf" stroke-linecap="round" stroke-width="3"/>
    <path id="Trazado_1-93" data-name="Trazado 1" d="M0,0S1.083,4.323,2.162,4.323,4.316,0,4.316,0" transform="translate(18.55 75.763)" fill="none" stroke="#8a4baf" stroke-linecap="round" stroke-width="3"/>
    <path id="Trazado_1-94" data-name="Trazado 1" d="M0,0S1.083,4.323,2.162,4.323,4.316,0,4.316,0" transform="translate(26.951 75.763)" fill="none" stroke="#8a4baf" stroke-linecap="round" stroke-width="3"/>
    <path id="Trazado_1-95" data-name="Trazado 1" d="M0,0S1.083,4.323,2.162,4.323,4.316,0,4.316,0" transform="translate(35.352 75.763)" fill="none" stroke="#8a4baf" stroke-linecap="round" stroke-width="3"/>
    <path id="Trazado_1-96" data-name="Trazado 1" d="M0,0S1.083,4.323,2.162,4.323,4.316,0,4.316,0" transform="translate(43.754 75.763)" fill="none" stroke="#8a4baf" stroke-linecap="round" stroke-width="3"/>
    <path id="Trazado_1-97" data-name="Trazado 1" d="M0,0S1.083,4.323,2.162,4.323,4.316,0,4.316,0" transform="translate(52.155 75.763)" fill="none" stroke="#8a4baf" stroke-linecap="round" stroke-width="3"/>
    <path id="Trazado_1-98" data-name="Trazado 1" d="M0,0S1.083,4.323,2.162,4.323,4.316,0,4.316,0" transform="translate(60.556 75.763)" fill="none" stroke="#8a4baf" stroke-linecap="round" stroke-width="3"/>
    <path id="Trazado_1-99" data-name="Trazado 1" d="M0,0S1.083,4.323,2.162,4.323,4.316,0,4.316,0" transform="translate(68.958 75.763)" fill="none" stroke="#8a4baf" stroke-linecap="round" stroke-width="3"/>
    <path id="Trazado_1-100" data-name="Trazado 1" d="M0,0S1.083,4.323,2.162,4.323,4.316,0,4.316,0" transform="translate(77.359 75.763)" fill="none" stroke="#8a4baf" stroke-linecap="round" stroke-width="3"/>
    <path id="Trazado_302" data-name="Trazado 302" d="M0,0S1.083,4.323,2.162,4.323,4.316,0,4.316,0" transform="translate(84.7 1.633)" fill="none" stroke="#5a5a5a" stroke-linecap="round" stroke-width="3"/>
    <path id="Trazado_303" data-name="Trazado 303" d="M0,0S1.083,4.323,2.162,4.323,4.316,0,4.316,0" transform="translate(93.101 1.633)" fill="none" stroke="#d59bf7" stroke-linecap="round" stroke-width="3"/>
    <path id="Trazado_304" data-name="Trazado 304" d="M0,0S1.083,4.323,2.162,4.323,4.316,0,4.316,0" transform="translate(101.503 1.633)" fill="none" stroke="#5a5a5a" stroke-linecap="round" stroke-width="3"/>
    <path id="Trazado_305" data-name="Trazado 305" d="M0,0S1.083,4.323,2.162,4.323,4.316,0,4.316,0" transform="translate(109.904 1.633)" fill="none" stroke="#d59bf7" stroke-linecap="round" stroke-width="3"/>
    <path id="Trazado_306" data-name="Trazado 306" d="M0,0S1.083,4.323,2.162,4.323,4.316,0,4.316,0" transform="translate(118.305 1.633)" fill="none" stroke="#5a5a5a" stroke-linecap="round" stroke-width="3"/>
    <path id="Trazado_307" data-name="Trazado 307" d="M0,0S1.083,4.323,2.162,4.323,4.316,0,4.316,0" transform="translate(126.707 1.633)" fill="none" stroke="#5a5a5a" stroke-linecap="round" stroke-width="3"/>
    <path id="Trazado_308" data-name="Trazado 308" d="M0,0S1.083,4.323,2.162,4.323,4.316,0,4.316,0" transform="translate(135.108 1.633)" fill="none" stroke="#d59bf7" stroke-linecap="round" stroke-width="3"/>
    <path id="Trazado_309" data-name="Trazado 309" d="M0,0S1.083,4.323,2.162,4.323,4.316,0,4.316,0" transform="translate(143.51 1.633)" fill="none" stroke="#5a5a5a" stroke-linecap="round" stroke-width="3"/>
    <path id="Trazado_310" data-name="Trazado 310" d="M0,0S1.083,4.323,2.162,4.323,4.316,0,4.316,0" transform="translate(151.911 1.633)" fill="none" stroke="#d59bf7" stroke-linecap="round" stroke-width="3"/>
    <path id="Trazado_311" data-name="Trazado 311" d="M0,0S1.083,4.323,2.162,4.323,4.316,0,4.316,0" transform="translate(160.312 1.633)" fill="none" stroke="#5a5a5a" stroke-linecap="round" stroke-width="3"/>
    <path id="Trazado_312" data-name="Trazado 312" d="M0,0S1.083,4.323,2.162,4.323,4.316,0,4.316,0" transform="translate(84.7 9.87)" fill="none" stroke="#5a5a5a" stroke-linecap="round" stroke-width="3"/>
    <path id="Trazado_313" data-name="Trazado 313" d="M0,0S1.083,4.323,2.162,4.323,4.316,0,4.316,0" transform="translate(93.101 9.87)" fill="none" stroke="#d59bf7" stroke-linecap="round" stroke-width="3"/>
    <path id="Trazado_314" data-name="Trazado 314" d="M0,0S1.083,4.323,2.162,4.323,4.316,0,4.316,0" transform="translate(101.503 9.87)" fill="none" stroke="#d59bf7" stroke-linecap="round" stroke-width="3"/>
    <path id="Trazado_315" data-name="Trazado 315" d="M0,0S1.083,4.323,2.162,4.323,4.316,0,4.316,0" transform="translate(109.904 9.87)" fill="none" stroke="#d59bf7" stroke-linecap="round" stroke-width="3"/>
    <path id="Trazado_316" data-name="Trazado 316" d="M0,0S1.083,4.323,2.162,4.323,4.316,0,4.316,0" transform="translate(118.305 9.87)" fill="none" stroke="#5a5a5a" stroke-linecap="round" stroke-width="3"/>
    <path id="Trazado_317" data-name="Trazado 317" d="M0,0S1.083,4.323,2.162,4.323,4.316,0,4.316,0" transform="translate(126.707 9.87)" fill="none" stroke="#5a5a5a" stroke-linecap="round" stroke-width="3"/>
    <path id="Trazado_318" data-name="Trazado 318" d="M0,0S1.083,4.323,2.162,4.323,4.316,0,4.316,0" transform="translate(135.108 9.87)" fill="none" stroke="#d59bf7" stroke-linecap="round" stroke-width="3"/>
    <path id="Trazado_319" data-name="Trazado 319" d="M0,0S1.083,4.323,2.162,4.323,4.316,0,4.316,0" transform="translate(143.51 9.87)" fill="none" stroke="#d59bf7" stroke-linecap="round" stroke-width="3"/>
    <path id="Trazado_320" data-name="Trazado 320" d="M0,0S1.083,4.323,2.162,4.323,4.316,0,4.316,0" transform="translate(151.911 9.87)" fill="none" stroke="#d59bf7" stroke-linecap="round" stroke-width="3"/>
    <path id="Trazado_321" data-name="Trazado 321" d="M0,0S1.083,4.323,2.162,4.323,4.316,0,4.316,0" transform="translate(160.312 9.87)" fill="none" stroke="#5a5a5a" stroke-linecap="round" stroke-width="3"/>
    <path id="Trazado_322" data-name="Trazado 322" d="M0,0S1.083,4.323,2.162,4.323,4.316,0,4.316,0" transform="translate(84.7 18.107)" fill="none" stroke="#5a5a5a" stroke-linecap="round" stroke-width="3"/>
    <path id="Trazado_323" data-name="Trazado 323" d="M0,0S1.083,4.323,2.162,4.323,4.316,0,4.316,0" transform="translate(93.101 18.107)" fill="none" stroke="#5a5a5a" stroke-linecap="round" stroke-width="3"/>
    <path id="Trazado_324" data-name="Trazado 324" d="M0,0S1.083,4.323,2.162,4.323,4.316,0,4.316,0" transform="translate(101.503 18.107)" fill="none" stroke="#d59bf7" stroke-linecap="round" stroke-width="3"/>
    <path id="Trazado_325" data-name="Trazado 325" d="M0,0S1.083,4.323,2.162,4.323,4.316,0,4.316,0" transform="translate(109.904 18.107)" fill="none" stroke="#5a5a5a" stroke-linecap="round" stroke-width="3"/>
    <path id="Trazado_326" data-name="Trazado 326" d="M0,0S1.083,4.323,2.162,4.323,4.316,0,4.316,0" transform="translate(118.305 18.107)" fill="none" stroke="#5a5a5a" stroke-linecap="round" stroke-width="3"/>
    <path id="Trazado_327" data-name="Trazado 327" d="M0,0S1.083,4.323,2.162,4.323,4.316,0,4.316,0" transform="translate(126.707 18.107)" fill="none" stroke="#5a5a5a" stroke-linecap="round" stroke-width="3"/>
    <path id="Trazado_328" data-name="Trazado 328" d="M0,0S1.083,4.323,2.162,4.323,4.316,0,4.316,0" transform="translate(135.108 18.107)" fill="none" stroke="#5a5a5a" stroke-linecap="round" stroke-width="3"/>
    <path id="Trazado_329" data-name="Trazado 329" d="M0,0S1.083,4.323,2.162,4.323,4.316,0,4.316,0" transform="translate(143.51 18.107)" fill="none" stroke="#d59bf7" stroke-linecap="round" stroke-width="3"/>
    <path id="Trazado_330" data-name="Trazado 330" d="M0,0S1.083,4.323,2.162,4.323,4.316,0,4.316,0" transform="translate(151.911 18.107)" fill="none" stroke="#5a5a5a" stroke-linecap="round" stroke-width="3"/>
    <path id="Trazado_331" data-name="Trazado 331" d="M0,0S1.083,4.323,2.162,4.323,4.316,0,4.316,0" transform="translate(160.312 18.107)" fill="none" stroke="#5a5a5a" stroke-linecap="round" stroke-width="3"/>
    <path id="Trazado_332" data-name="Trazado 332" d="M0,0S1.083,4.323,2.162,4.323,4.316,0,4.316,0" transform="translate(84.7 26.343)" fill="none" stroke="#5a5a5a" stroke-linecap="round" stroke-width="3"/>
    <path id="Trazado_333" data-name="Trazado 333" d="M0,0S1.083,4.323,2.162,4.323,4.316,0,4.316,0" transform="translate(93.101 26.343)" fill="none" stroke="#5a5a5a" stroke-linecap="round" stroke-width="3"/>
    <path id="Trazado_334" data-name="Trazado 334" d="M0,0S1.083,4.323,2.162,4.323,4.316,0,4.316,0" transform="translate(101.503 26.343)" fill="none" stroke="#5a5a5a" stroke-linecap="round" stroke-width="3"/>
    <path id="Trazado_335" data-name="Trazado 335" d="M0,0S1.083,4.323,2.162,4.323,4.316,0,4.316,0" transform="translate(109.904 26.343)" fill="none" stroke="#c3c3c3" stroke-linecap="round" stroke-width="3"/>
    <path id="Trazado_336" data-name="Trazado 336" d="M0,0S1.083,4.323,2.162,4.323,4.316,0,4.316,0" transform="translate(118.305 26.343)" fill="none" stroke="#5a5a5a" stroke-linecap="round" stroke-width="3"/>
    <path id="Trazado_337" data-name="Trazado 337" d="M0,0S1.083,4.323,2.162,4.323,4.316,0,4.316,0" transform="translate(126.707 26.343)" fill="none" stroke="#5a5a5a" stroke-linecap="round" stroke-width="3"/>
    <path id="Trazado_338" data-name="Trazado 338" d="M0,0S1.083,4.323,2.162,4.323,4.316,0,4.316,0" transform="translate(135.108 26.343)" fill="none" stroke="#c3c3c3" stroke-linecap="round" stroke-width="3"/>
    <path id="Trazado_339" data-name="Trazado 339" d="M0,0S1.083,4.323,2.162,4.323,4.316,0,4.316,0" transform="translate(143.51 26.343)" fill="none" stroke="#5a5a5a" stroke-linecap="round" stroke-width="3"/>
    <path id="Trazado_340" data-name="Trazado 340" d="M0,0S1.083,4.323,2.162,4.323,4.316,0,4.316,0" transform="translate(151.911 26.343)" fill="none" stroke="#5a5a5a" stroke-linecap="round" stroke-width="3"/>
    <path id="Trazado_341" data-name="Trazado 341" d="M0,0S1.083,4.323,2.162,4.323,4.316,0,4.316,0" transform="translate(160.312 26.343)" fill="none" stroke="#5a5a5a" stroke-linecap="round" stroke-width="3"/>
    <path id="Trazado_342" data-name="Trazado 342" d="M0,0S1.083,4.323,2.162,4.323,4.316,0,4.316,0" transform="translate(84.7 34.58)" fill="none" stroke="#5a5a5a" stroke-linecap="round" stroke-width="3"/>
    <path id="Trazado_343" data-name="Trazado 343" d="M0,0S1.083,4.323,2.162,4.323,4.316,0,4.316,0" transform="translate(93.101 34.58)" fill="none" stroke="#5a5a5a" stroke-linecap="round" stroke-width="3"/>
    <path id="Trazado_344" data-name="Trazado 344" d="M0,0S1.083,4.323,2.162,4.323,4.316,0,4.316,0" transform="translate(101.503 34.58)" fill="none" stroke="#5a5a5a" stroke-linecap="round" stroke-width="3"/>
    <path id="Trazado_345" data-name="Trazado 345" d="M0,0S1.083,4.323,2.162,4.323,4.316,0,4.316,0" transform="translate(109.904 34.58)" fill="none" stroke="#5a5a5a" stroke-linecap="round" stroke-width="3"/>
    <path id="Trazado_346" data-name="Trazado 346" d="M0,0S1.083,4.323,2.162,4.323,4.316,0,4.316,0" transform="translate(118.305 34.58)" fill="none" stroke="#c3c3c3" stroke-linecap="round" stroke-width="3"/>
    <path id="Trazado_347" data-name="Trazado 347" d="M0,0S1.083,4.323,2.162,4.323,4.316,0,4.316,0" transform="translate(126.707 34.58)" fill="none" stroke="#c3c3c3" stroke-linecap="round" stroke-width="3"/>
    <path id="Trazado_348" data-name="Trazado 348" d="M0,0S1.083,4.323,2.162,4.323,4.316,0,4.316,0" transform="translate(135.108 34.58)" fill="none" stroke="#5a5a5a" stroke-linecap="round" stroke-width="3"/>
    <path id="Trazado_349" data-name="Trazado 349" d="M0,0S1.083,4.323,2.162,4.323,4.316,0,4.316,0" transform="translate(143.51 34.58)" fill="none" stroke="#5a5a5a" stroke-linecap="round" stroke-width="3"/>
    <path id="Trazado_350" data-name="Trazado 350" d="M0,0S1.083,4.323,2.162,4.323,4.316,0,4.316,0" transform="translate(151.911 34.58)" fill="none" stroke="#5a5a5a" stroke-linecap="round" stroke-width="3"/>
    <path id="Trazado_351" data-name="Trazado 351" d="M0,0S1.083,4.323,2.162,4.323,4.316,0,4.316,0" transform="translate(160.312 34.58)" fill="none" stroke="#5a5a5a" stroke-linecap="round" stroke-width="3"/>
    <path id="Trazado_352" data-name="Trazado 352" d="M0,0S1.083,4.323,2.162,4.323,4.316,0,4.316,0" transform="translate(84.7 42.817)" fill="none" stroke="#5a5a5a" stroke-linecap="round" stroke-width="3"/>
    <path id="Trazado_353" data-name="Trazado 353" d="M0,0S1.083,4.323,2.162,4.323,4.316,0,4.316,0" transform="translate(93.101 42.817)" fill="none" stroke="#5a5a5a" stroke-linecap="round" stroke-width="3"/>
    <path id="Trazado_354" data-name="Trazado 354" d="M0,0S1.083,4.323,2.162,4.323,4.316,0,4.316,0" transform="translate(101.503 42.817)" fill="none" stroke="#5a5a5a" stroke-linecap="round" stroke-width="3"/>
    <path id="Trazado_355" data-name="Trazado 355" d="M0,0S1.083,4.323,2.162,4.323,4.316,0,4.316,0" transform="translate(109.904 42.817)" fill="none" stroke="#5a5a5a" stroke-linecap="round" stroke-width="3"/>
    <path id="Trazado_356" data-name="Trazado 356" d="M0,0S1.083,4.323,2.162,4.323,4.316,0,4.316,0" transform="translate(118.305 42.817)" fill="none" stroke="#c3c3c3" stroke-linecap="round" stroke-width="3"/>
    <path id="Trazado_357" data-name="Trazado 357" d="M0,0S1.083,4.323,2.162,4.323,4.316,0,4.316,0" transform="translate(126.707 42.817)" fill="none" stroke="#c3c3c3" stroke-linecap="round" stroke-width="3"/>
    <path id="Trazado_358" data-name="Trazado 358" d="M0,0S1.083,4.323,2.162,4.323,4.316,0,4.316,0" transform="translate(135.108 42.817)" fill="none" stroke="#5a5a5a" stroke-linecap="round" stroke-width="3"/>
    <path id="Trazado_359" data-name="Trazado 359" d="M0,0S1.083,4.323,2.162,4.323,4.316,0,4.316,0" transform="translate(143.51 42.817)" fill="none" stroke="#5a5a5a" stroke-linecap="round" stroke-width="3"/>
    <path id="Trazado_360" data-name="Trazado 360" d="M0,0S1.083,4.323,2.162,4.323,4.316,0,4.316,0" transform="translate(151.911 42.817)" fill="none" stroke="#5a5a5a" stroke-linecap="round" stroke-width="3"/>
    <path id="Trazado_361" data-name="Trazado 361" d="M0,0S1.083,4.323,2.162,4.323,4.316,0,4.316,0" transform="translate(160.312 42.817)" fill="none" stroke="#5a5a5a" stroke-linecap="round" stroke-width="3"/>
    <path id="Trazado_362" data-name="Trazado 362" d="M0,0S1.083,4.323,2.162,4.323,4.316,0,4.316,0" transform="translate(84.7 51.053)" fill="none" stroke="#5a5a5a" stroke-linecap="round" stroke-width="3"/>
    <path id="Trazado_363" data-name="Trazado 363" d="M0,0S1.083,4.323,2.162,4.323,4.316,0,4.316,0" transform="translate(93.101 51.053)" fill="none" stroke="#5a5a5a" stroke-linecap="round" stroke-width="3"/>
    <path id="Trazado_364" data-name="Trazado 364" d="M0,0S1.083,4.323,2.162,4.323,4.316,0,4.316,0" transform="translate(101.503 51.053)" fill="none" stroke="#5a5a5a" stroke-linecap="round" stroke-width="3"/>
    <path id="Trazado_365" data-name="Trazado 365" d="M0,0S1.083,4.323,2.162,4.323,4.316,0,4.316,0" transform="translate(109.904 51.053)" fill="none" stroke="#c3c3c3" stroke-linecap="round" stroke-width="3"/>
    <path id="Trazado_366" data-name="Trazado 366" d="M0,0S1.083,4.323,2.162,4.323,4.316,0,4.316,0" transform="translate(118.305 51.053)" fill="none" stroke="#5a5a5a" stroke-linecap="round" stroke-width="3"/>
    <path id="Trazado_367" data-name="Trazado 367" d="M0,0S1.083,4.323,2.162,4.323,4.316,0,4.316,0" transform="translate(126.707 51.053)" fill="none" stroke="#5a5a5a" stroke-linecap="round" stroke-width="3"/>
    <path id="Trazado_368" data-name="Trazado 368" d="M0,0S1.083,4.323,2.162,4.323,4.316,0,4.316,0" transform="translate(135.108 51.053)" fill="none" stroke="#c3c3c3" stroke-linecap="round" stroke-width="3"/>
    <path id="Trazado_369" data-name="Trazado 369" d="M0,0S1.083,4.323,2.162,4.323,4.316,0,4.316,0" transform="translate(143.51 51.053)" fill="none" stroke="#5a5a5a" stroke-linecap="round" stroke-width="3"/>
    <path id="Trazado_370" data-name="Trazado 370" d="M0,0S1.083,4.323,2.162,4.323,4.316,0,4.316,0" transform="translate(151.911 51.053)" fill="none" stroke="#5a5a5a" stroke-linecap="round" stroke-width="3"/>
    <path id="Trazado_371" data-name="Trazado 371" d="M0,0S1.083,4.323,2.162,4.323,4.316,0,4.316,0" transform="translate(160.312 51.053)" fill="none" stroke="#5a5a5a" stroke-linecap="round" stroke-width="3"/>
    <path id="Trazado_372" data-name="Trazado 372" d="M0,0S1.083,4.323,2.162,4.323,4.316,0,4.316,0" transform="translate(84.7 59.29)" fill="none" stroke="#5a5a5a" stroke-linecap="round" stroke-width="3"/>
    <path id="Trazado_373" data-name="Trazado 373" d="M0,0S1.083,4.323,2.162,4.323,4.316,0,4.316,0" transform="translate(93.101 59.29)" fill="none" stroke="#d59bf7" stroke-linecap="round" stroke-width="3"/>
    <path id="Trazado_374" data-name="Trazado 374" d="M0,0S1.083,4.323,2.162,4.323,4.316,0,4.316,0" transform="translate(101.503 59.29)" fill="none" stroke="#5a5a5a" stroke-linecap="round" stroke-width="3"/>
    <path id="Trazado_375" data-name="Trazado 375" d="M0,0S1.083,4.323,2.162,4.323,4.316,0,4.316,0" transform="translate(109.904 59.29)" fill="none" stroke="#d59bf7" stroke-linecap="round" stroke-width="3"/>
    <path id="Trazado_376" data-name="Trazado 376" d="M0,0S1.083,4.323,2.162,4.323,4.316,0,4.316,0" transform="translate(118.305 59.29)" fill="none" stroke="#5a5a5a" stroke-linecap="round" stroke-width="3"/>
    <path id="Trazado_377" data-name="Trazado 377" d="M0,0S1.083,4.323,2.162,4.323,4.316,0,4.316,0" transform="translate(126.707 59.29)" fill="none" stroke="#5a5a5a" stroke-linecap="round" stroke-width="3"/>
    <path id="Trazado_378" data-name="Trazado 378" d="M0,0S1.083,4.323,2.162,4.323,4.316,0,4.316,0" transform="translate(135.108 59.29)" fill="none" stroke="#d59bf7" stroke-linecap="round" stroke-width="3"/>
    <path id="Trazado_379" data-name="Trazado 379" d="M0,0S1.083,4.323,2.162,4.323,4.316,0,4.316,0" transform="translate(143.51 59.29)" fill="none" stroke="#5a5a5a" stroke-linecap="round" stroke-width="3"/>
    <path id="Trazado_380" data-name="Trazado 380" d="M0,0S1.083,4.323,2.162,4.323,4.316,0,4.316,0" transform="translate(151.911 59.29)" fill="none" stroke="#d59bf7" stroke-linecap="round" stroke-width="3"/>
    <path id="Trazado_381" data-name="Trazado 381" d="M0,0S1.083,4.323,2.162,4.323,4.316,0,4.316,0" transform="translate(160.312 59.29)" fill="none" stroke="#5a5a5a" stroke-linecap="round" stroke-width="3"/>
    <path id="Trazado_382" data-name="Trazado 382" d="M0,0S1.083,4.323,2.162,4.323,4.316,0,4.316,0" transform="translate(84.7 67.526)" fill="none" stroke="#5a5a5a" stroke-linecap="round" stroke-width="3"/>
    <path id="Trazado_383" data-name="Trazado 383" d="M0,0S1.083,4.323,2.162,4.323,4.316,0,4.316,0" transform="translate(93.101 67.526)" fill="none" stroke="#d59bf7" stroke-linecap="round" stroke-width="3"/>
    <path id="Trazado_384" data-name="Trazado 384" d="M0,0S1.083,4.323,2.162,4.323,4.316,0,4.316,0" transform="translate(101.503 67.526)" fill="none" stroke="#d59bf7" stroke-linecap="round" stroke-width="3"/>
    <path id="Trazado_385" data-name="Trazado 385" d="M0,0S1.083,4.323,2.162,4.323,4.316,0,4.316,0" transform="translate(109.904 67.526)" fill="none" stroke="#d59bf7" stroke-linecap="round" stroke-width="3"/>
    <path id="Trazado_386" data-name="Trazado 386" d="M0,0S1.083,4.323,2.162,4.323,4.316,0,4.316,0" transform="translate(118.305 67.526)" fill="none" stroke="#5a5a5a" stroke-linecap="round" stroke-width="3"/>
    <path id="Trazado_387" data-name="Trazado 387" d="M0,0S1.083,4.323,2.162,4.323,4.316,0,4.316,0" transform="translate(126.707 67.526)" fill="none" stroke="#5a5a5a" stroke-linecap="round" stroke-width="3"/>
    <path id="Trazado_388" data-name="Trazado 388" d="M0,0S1.083,4.323,2.162,4.323,4.316,0,4.316,0" transform="translate(135.108 67.526)" fill="none" stroke="#d59bf7" stroke-linecap="round" stroke-width="3"/>
    <path id="Trazado_389" data-name="Trazado 389" d="M0,0S1.083,4.323,2.162,4.323,4.316,0,4.316,0" transform="translate(143.51 67.526)" fill="none" stroke="#d59bf7" stroke-linecap="round" stroke-width="3"/>
    <path id="Trazado_390" data-name="Trazado 390" d="M0,0S1.083,4.323,2.162,4.323,4.316,0,4.316,0" transform="translate(151.911 67.526)" fill="none" stroke="#d59bf7" stroke-linecap="round" stroke-width="3"/>
    <path id="Trazado_391" data-name="Trazado 391" d="M0,0S1.083,4.323,2.162,4.323,4.316,0,4.316,0" transform="translate(160.312 67.526)" fill="none" stroke="#5a5a5a" stroke-linecap="round" stroke-width="3"/>
    <path id="Trazado_392" data-name="Trazado 392" d="M0,0S1.083,4.323,2.162,4.323,4.316,0,4.316,0" transform="translate(84.7 75.763)" fill="none" stroke="#5a5a5a" stroke-linecap="round" stroke-width="3"/>
    <path id="Trazado_393" data-name="Trazado 393" d="M0,0S1.083,4.323,2.162,4.323,4.316,0,4.316,0" transform="translate(93.101 75.763)" fill="none" stroke="#5a5a5a" stroke-linecap="round" stroke-width="3"/>
    <path id="Trazado_394" data-name="Trazado 394" d="M0,0S1.083,4.323,2.162,4.323,4.316,0,4.316,0" transform="translate(101.503 75.763)" fill="none" stroke="#d59bf7" stroke-linecap="round" stroke-width="3"/>
    <path id="Trazado_395" data-name="Trazado 395" d="M0,0S1.083,4.323,2.162,4.323,4.316,0,4.316,0" transform="translate(109.904 75.763)" fill="none" stroke="#5a5a5a" stroke-linecap="round" stroke-width="3"/>
    <path id="Trazado_396" data-name="Trazado 396" d="M0,0S1.083,4.323,2.162,4.323,4.316,0,4.316,0" transform="translate(118.305 75.763)" fill="none" stroke="#5a5a5a" stroke-linecap="round" stroke-width="3"/>
    <path id="Trazado_397" data-name="Trazado 397" d="M0,0S1.083,4.323,2.162,4.323,4.316,0,4.316,0" transform="translate(126.707 75.763)" fill="none" stroke="#5a5a5a" stroke-linecap="round" stroke-width="3"/>
    <path id="Trazado_398" data-name="Trazado 398" d="M0,0S1.083,4.323,2.162,4.323,4.316,0,4.316,0" transform="translate(135.108 75.763)" fill="none" stroke="#5a5a5a" stroke-linecap="round" stroke-width="3"/>
    <path id="Trazado_399" data-name="Trazado 399" d="M0,0S1.083,4.323,2.162,4.323,4.316,0,4.316,0" transform="translate(143.51 75.763)" fill="none" stroke="#d59bf7" stroke-linecap="round" stroke-width="3"/>
    <path id="Trazado_400" data-name="Trazado 400" d="M0,0S1.083,4.323,2.162,4.323,4.316,0,4.316,0" transform="translate(151.911 75.763)" fill="none" stroke="#5a5a5a" stroke-linecap="round" stroke-width="3"/>
    <path id="Trazado_401" data-name="Trazado 401" d="M0,0S1.083,4.323,2.162,4.323,4.316,0,4.316,0" transform="translate(160.312 75.763)" fill="none" stroke="#5a5a5a" stroke-linecap="round" stroke-width="3"/>
  </g>
</svg>
